<svg xmlns="http://www.w3.org/2000/svg" version="1.1" xmlns:xlink="http://www.w3.org/1999/xlink" xmlns:svgjs="http://svgjs.com/svgjs" width="512" height="512" x="0" y="0" viewBox="0 0 512 512" style="enable-background:new 0 0 512 512" xml:space="preserve" class=""><g><link type="text/css" id="dark-mode" rel="stylesheet" href=""></link>
  <g xmlns="http://www.w3.org/2000/svg">
    <g>
      <path d="m78.5,338.8c7.2,7.2 9.5,17.6 6.8,26.7h341.5c-2.7-9.2-0.5-19.5 6.8-26.7 7.5-7.5 18.4-9.7 27.9-6.4v-143.4c-9.4,3.3-20.3,1.1-27.9-6.4-7.2-7.2-9.5-17.6-6.8-26.7h-341.6c2.7,9.2 0.5,19.5-6.8,26.7-7.3,7.3-17.6,9.5-26.8,6.7v142.7c9.2-2.7 19.6-0.5 26.9,6.8zm-6-132.8c14.6-3.1 25-14.6 29.2-29.2h308.6c3.1,14.6 14.6,25 29.2,29.2v110.5c-14.6,3.1-25,14.6-29.2,29.2h-308.6c-4.2-14.6-15.6-26.1-29.2-29.2v-110.5z" fill="#ffffff" data-original="#000000" class=""></path>
      <path d="M11,104.8v302.3h490V104.8H11z M481.2,386.3H31.9V125.7h449.3V386.3z" fill="#ffffff" data-original="#000000" class=""></path>
      <path d="m239.3,276.9l-14.6,17.7c10.4,9.4 22.9,15.6 35.4,17.7v9.4h16.7v-10.4c10.4-1 17.7-5.2 24-10.4 5.2-6.3 8.3-13.6 8.3-21.9 0-9.4-3.1-15.6-8.3-20.9-5.2-5.2-12.5-8.3-24-11.5v-21.9c5.2,2.1 11.5,5.2 17.7,9.4l12.5-17.7c-9.4-7.3-19.8-11.5-30.2-12.5v-7.3h-15.6v7.3c-9.4,1-17.7,5.2-22.9,10.4-5.2,6.3-8.3,13.6-8.3,21.9 0,8.3 2.1,15.6 7.3,19.8 5.2,5.2 13.6,8.3 24,11.5v22.9c-6.3-2.1-13.6-6.3-22-13.5zm37.6-3.2c3.1,1 5.2,3.1 6.3,4.2 1,1 2.1,3.1 2.1,5.2 0,4.2-3.1,7.3-8.3,9.4v-18.8zm-16.8-29.2c-4.2-2.1-6.3-5.2-6.3-9.4s2.1-7.3 6.3-8.3v17.7z" fill="#ffffff" data-original="#000000" class=""></path>
      <rect width="20.9" x="384.2" y="249.7" height="28.1" fill="#ffffff" data-original="#000000" class=""></rect>
      <rect width="20.9" x="108" y="249.7" height="28.1" fill="#ffffff" data-original="#000000" class=""></rect>
    </g>
  </g>
</g></svg>