<svg xmlns="http://www.w3.org/2000/svg" version="1.1" xmlns:xlink="http://www.w3.org/1999/xlink" xmlns:svgjs="http://svgjs.com/svgjs" width="512" height="512" x="0" y="0" viewBox="0 0 24 24" style="enable-background:new 0 0 512 512" xml:space="preserve" class=""><g><link type="text/css" id="dark-mode" rel="stylesheet" href=""></link><path xmlns="http://www.w3.org/2000/svg" d="m20.3720703 6.7890625-11.2363281-1.4047852c-.5936279-.0743408-1.1742554.0448609-1.6937866.3023682l-.2388306-2.03479c-.1796875-1.5117188-1.4628906-2.6518555-2.9833984-2.6518555h-2.2197266c-.5527344 0-1 .4477539-1 1s.4472656 1 1 1h2.2197266c.5087891 0 .9375.3818359.9970703.887207l1.5800781 13.4609375c.1604004 1.3497314 1.2022705 2.3970337 2.5055542 2.6072998-.1882935.3049317-.3024292.6605835-.3024292 1.0445557 0 1.1030273.8974609 2 2 2s2-.8969727 2-2c0-.3659058-.105957-.7046509-.2781982-1h4.5563965c-.1722413.2953491-.2781983.6340942-.2781983 1 0 1.1030273.8974609 2 2 2s2-.8969727 2-2c0-.3659058-.105957-.7046509-.2781982-1h1.2781982c.5527344 0 1-.4477539 1-1s-.4472656-1-1-1h-12.2197266c-.5087891 0-.9375-.3818359-.9970703-.8857422l-.1405029-1.1970215c.2155151.0491944.4364624.0827637.6658936.0827637h10.6914062c1.6542969 0 3-1.3457031 3-3v-3.234375c0-1.5097656-1.1298828-2.7895508-2.6279297-2.9765625zm.6279297 6.2109375c0 .5512695-.4482422 1-1 1h-10.6914062c-.5068359 0-.9345703-.3798828-.9931641-.8833008l-.5449219-4.6391601c-.0361328-.3071289.069336-.6083985.2890625-.8261719.1894531-.1879883.4394531-.2905273.7021484-.2905273.0419922 0 .0839844.0024414.1259766.0078125l11.2363281 1.4047852c.4990235.0624999.8759766.4887694.8759766.9921874z" fill="#ffffff" data-original="#000000" class=""></path></g></svg>